HIERARCHY
ROOT Hips
{
  OFFSET -4.35178 90.3298 111.633
  CHANNELS 6 Xposition Yposition Zposition Zrotation Xrotation Yrotation
  JOINT LeftUpLeg
  {
    OFFSET 0.103456 1.85784 10.5485
    CHANNELS 6 Xposition Yposition Zposition Zrotation Xrotation Yrotation
    JOINT LeftLeg
    {
      OFFSET 43.5 -4.2e-05 0
      CHANNELS 6 Xposition Yposition Zposition Zrotation Xrotation Yrotation
      JOINT LeftFoot
      {
        OFFSET 42.3722 1.9e-05 0
        CHANNELS 6 Xposition Yposition Zposition Zrotation Xrotation Yrotation
        JOINT LeftToe
        {
          OFFSET 17.3 0 0
          CHANNELS 6 Xposition Yposition Zposition Zrotation Xrotation Yrotation
          End Site
          {
            OFFSET 0 0 0
          }
        }
      }
    }
  }
  JOINT RightUpLeg
  {
    OFFSET 0.103456 1.85782 -10.5485
    CHANNELS 6 Xposition Yposition Zposition Zrotation Xrotation Yrotation
    JOINT RightLeg
    {
      OFFSET 43.5 -2.7e-05 0
      CHANNELS 6 Xposition Yposition Zposition Zrotation Xrotation Yrotation
      JOINT RightFoot
      {
        OFFSET 42.3723 0 0
        CHANNELS 6 Xposition Yposition Zposition Zrotation Xrotation Yrotation
        JOINT RightToe
        {
          OFFSET 17.3 0 1.7e-05
          CHANNELS 6 Xposition Yposition Zposition Zrotation Xrotation Yrotation
          End Site
          {
            OFFSET 0 0 0
          }
        }
      }
    }
  }
  JOINT Spine
  {
    OFFSET 6.90197 -2.60373 0
    CHANNELS 6 Xposition Yposition Zposition Zrotation Xrotation Yrotation
    JOINT Spine1
    {
      OFFSET 12.5881 0 0
      CHANNELS 6 Xposition Yposition Zposition Zrotation Xrotation Yrotation
      JOINT Spine2
      {
        OFFSET 12.3432 -1.8e-05 0
        CHANNELS 6 Xposition Yposition Zposition Zrotation Xrotation Yrotation
        JOINT Neck
        {
          OFFSET 25.8329 2.3e-05 0
          CHANNELS 6 Xposition Yposition Zposition Zrotation Xrotation Yrotation
          JOINT Head
          {
            OFFSET 11.7666 0 0
            CHANNELS 6 Xposition Yposition Zposition Zrotation Xrotation Yrotation
            End Site
            {
              OFFSET 0 0 0
            }
          }
        }
        JOINT LeftShoulder
        {
          OFFSET 19.7459 -1.48035 6.0001
          CHANNELS 6 Xposition Yposition Zposition Zrotation Xrotation Yrotation
          JOINT LeftArm
          {
            OFFSET 11.2841 1.8e-05 -2e-05
            CHANNELS 6 Xposition Yposition Zposition Zrotation Xrotation Yrotation
            JOINT LeftForeArm
            {
              OFFSET 33 -1.3e-05 1.9e-05
              CHANNELS 6 Xposition Yposition Zposition Zrotation Xrotation Yrotation
              JOINT LeftHand
              {
                OFFSET 25.2 3.2e-05 1.1e-05
                CHANNELS 6 Xposition Yposition Zposition Zrotation Xrotation Yrotation
                End Site
                {
                  OFFSET 0 0 0
                }
              }
            }
          }
        }
        JOINT RightShoulder
        {
          OFFSET 19.7461 -1.48036 -6.00008
          CHANNELS 6 Xposition Yposition Zposition Zrotation Xrotation Yrotation
          JOINT RightArm
          {
            OFFSET 11.2841 0 0
            CHANNELS 6 Xposition Yposition Zposition Zrotation Xrotation Yrotation
            JOINT RightForeArm
            {
              OFFSET 33.0001 1.6e-05 0
              CHANNELS 6 Xposition Yposition Zposition Zrotation Xrotation Yrotation
              JOINT RightHand
              {
                OFFSET 25.1998 0.000123 0.000432
                CHANNELS 6 Xposition Yposition Zposition Zrotation Xrotation Yrotation
                End Site
                {
                  OFFSET 0 0 0
                }
              }
            }
          }
        }
      }
    }
  }
}
MOTION
Frames:	8
Frame Time:	0.0333333
-21.6358 91.6613 1.53056 5.27644 85.3726 87.472 0.103456 1.85784 10.5485 5.56524 13.7057 -176.556 43.5 -4.2e-05 1e-05 -17.7236 -9.36201 -2.90107 42.3722 1.9e-05 8.88178e-16 75.3412 0.265428 0.660189 17.3 2.22045e-16 3e-06 21.4546 -1e-06 0.003093 0.103456 1.85782 -10.5485 8.89803 0.159459 175.141 43.5 -2.7e-05 4e-06 -11.9957 11.9724 2.12693 42.3723 -2.66454e-15 1e-05 83.1296 12.7216 -11.6235 17.3 -6e-06 1.7e-05 21.4546 -1.9e-05 -0.003116 6.90197 -2.60373 -3e-06 7.17306 -0.00502307 0.137219 12.5881 1e-05 8e-06 4.33091 0.065588 0.297769 12.3432 -1.8e-05 -5e-06 4.01016 0.146704 0.303386 25.8329 2.3e-05 7e-06 4.42499 -1.05094 -4.37177 11.7666 -8e-06 -6e-06 -19.8389 -7.8872 11.2857 19.7459 -1.48035 6.0001 174.126 -12.9742 -100.366 11.2841 1.8e-05 -2e-05 5.78397 -24.7471 34.8375 33 -1.3e-05 1.9e-05 -31.026 9.99176 -14.1268 25.2 3.2e-05 1.1e-05 -3.9036 30.8908 2.94202 19.7461 -1.48036 -6.00008 -178.785 2.32433 79.3531 11.2841 0 -1e-06 10.2816 -0.804488 -4.50272 33.0001 1.6e-05 -1e-06 -33.3286 3.17123 20.8589 25.1998 0.000123 0.000432 16.5637 -14.3939 6.90153 
-22.0154 91.6434 1.8647 2.23406 85.383 90.4916 0.103456 1.85784 10.5485 5.0578 13.3907 -176.189 43.5 -4.2e-05 1e-05 -18.9746 -9.36355 -2.94813 42.3722 1.9e-05 -2.22045e-16 75.617 0.145945 1.02011 17.3 4.44089e-16 3e-06 21.4546 -1e-06 0.003093 0.103456 1.85782 -10.5485 9.13423 0.16163 175.454 43.5 -2.7e-05 4e-06 -12.121 12.1139 2.10691 42.3723 1.77636e-15 1e-05 83.565 12.8024 -11.6226 17.3 -6e-06 1.7e-05 21.4546 -1.9e-05 -0.003116 6.90197 -2.60373 -3e-06 7.25128 -0.0189865 0.084677 12.5881 1e-05 8e-06 4.48794 0.0323626 0.195107 12.3432 -1.8e-05 -5e-06 4.16808 0.109573 0.203253 25.8329 2.3e-05 7e-06 4.07426 -1.08466 -4.32409 11.7666 -8e-06 -6e-06 -18.8089 -8.02493 11.4204 19.7459 -1.48035 6.0001 174.491 -13.0003 -99.4895 11.2841 1.8e-05 -2e-05 6.25314 -24.3727 35.8189 33 -1.3e-05 1.9e-05 -34.6417 9.72431 -13.3768 25.2 3.2e-05 1.1e-05 -4.94909 30.7447 3.02704 19.7461 -1.48036 -6.00008 -178.418 2.17747 78.7133 11.2841 -3.55271e-15 -1e-06 10.2689 -0.29206 -6.12325 33.0001 1.6e-05 -1e-06 -35.2677 2.68183 21.3254 25.1998 0.000123 0.000432 16.1741 -14.502 7.69019 
-22.4525 91.5425 2.21157 -0.218929 85.408 92.8871 0.103456 1.85784 10.5485 4.17743 12.8859 -175.718 43.5 -4.2e-05 1e-05 -20.8855 -9.37873 -3.01387 42.3722 1.9e-05 2.22045e-16 75.9522 -0.0827789 1.62592 17.3 8.88178e-16 3e-06 21.4546 -1e-06 0.003093 0.103456 1.85782 -10.5485 9.22621 0.0902746 175.822 43.5 -2.7e-05 4e-06 -12.4438 12.2252 2.08521 42.3723 -8.88178e-16 1e-05 84.0712 12.8522 -11.5141 17.3 -6e-06 1.7e-05 21.4546 -1.9e-05 -0.003116 6.90197 -2.60373 -3e-06 7.35709 -0.0149158 0.0219424 12.5881 1e-05 8e-06 4.69984 0.034148 0.0696576 12.3432 -1.8e-05 -5e-06 4.38042 0.106818 0.0782679 25.8329 2.3e-05 7e-06 3.65887 -1.17236 -4.21888 11.7666 -8e-06 -6e-06 -17.6564 -8.26825 11.5462 19.7459 -1.48035 6.0001 174.848 -13.0201 -98.4982 11.2841 1.8e-05 -2e-05 7.10297 -24.1409 37.4761 33 -1.3e-05 1.9e-05 -38.5338 9.20503 -12.5355 25.2 3.2e-05 1.1e-05 -6.30976 30.4791 3.09111 19.7461 -1.48036 -6.00008 -177.814 1.87888 77.8499 11.2841 3.55271e-15 -1e-06 10.3918 0.629966 -8.68113 33.0001 1.6e-05 -1e-06 -38.0088 2.47665 21.6533 25.1998 0.000123 0.000432 15.4218 -14.3891 8.49383 
-22.9542 91.4049 2.58757 -3.0925 85.4255 95.6127 0.103456 1.85784 10.5485 2.81372 12.0314 -175.111 43.5 -4.2e-05 1e-05 -23.7134 -9.40948 -3.12368 42.3722 1.9e-05 4.44089e-16 76.2677 -0.338932 2.70247 17.3 1.33227e-15 3e-06 21.4546 -1e-06 0.003093 0.103456 1.85782 -10.5485 9.3008 -0.0900553 176.329 43.5 -2.7e-05 4e-06 -12.8186 12.314 2.03333 42.3723 -3.55271e-15 1e-05 84.5634 12.8368 -11.3461 17.3 -6e-06 1.7e-05 21.4546 -1.9e-05 -0.003116 6.90197 -2.60373 -3e-06 7.50269 0.00777107 0.00714973 12.5881 1e-05 8e-06 4.99058 0.0807065 0.0372855 12.3432 -1.8e-05 -5e-06 4.67055 0.15567 0.0435408 25.8329 2.3e-05 7e-06 3.19028 -1.39919 -4.05022 11.7666 -8e-06 -6e-06 -16.4952 -8.59533 11.4527 19.7459 -1.48035 6.0001 175.29 -13.1139 -97.2802 11.2841 1.8e-05 -2e-05 8.1065 -23.9604 40.0801 33 -1.3e-05 1.9e-05 -42.4324 8.84102 -11.6591 25.2 3.2e-05 1.1e-05 -7.7009 30.4375 2.99411 19.7461 -1.48036 -6.00008 -176.935 1.46848 76.4972 11.2841 0 -1e-06 10.4949 1.05841 -11.2379 33.0001 1.6e-05 -1e-06 -41.4728 2.32582 21.6206 25.1998 0.000123 0.000432 14.0351 -14.2869 9.0346 
-23.4918 91.2316 2.98125 -6.35755 85.436 98.7031 0.103456 1.85784 10.5485 0.850969 10.9296 -174.432 43.5 -4.2e-05 1e-05 -27.6433 -9.3388 -3.29782 42.3722 1.9e-05 0 76.322 -0.477704 4.27687 17.3 -8.88178e-16 3e-06 21.4546 -1e-06 0.003093 0.103456 1.85782 -10.5485 9.3781 -0.344937 176.896 43.5 -2.7e-05 4e-06 -13.213 12.429 1.96919 42.3723 1.77636e-15 1e-05 85.1296 12.7586 -11.1309 17.3 -6e-06 1.7e-05 21.4546 -1.9e-05 -0.003116 6.90197 -2.60373 -3e-06 7.66277 0.0200948 0.0118367 12.5881 1e-05 8e-06 5.3104 0.109675 0.045176 12.3432 -1.8e-05 -5e-06 4.98988 0.189909 0.0501157 25.8329 2.3e-05 7e-06 2.87305 -1.66156 -3.99163 11.7666 -8e-06 -6e-06 -15.5942 -8.85813 11.2637 19.7459 -1.48035 6.0001 175.938 -13.2034 -95.7348 11.2841 1.8e-05 -2e-05 9.07495 -23.5134 43.125 33 -1.3e-05 1.9e-05 -46.2664 8.98732 -10.8859 25.2 3.2e-05 1.1e-05 -9.62617 30.5709 2.95271 19.7461 -1.48036 -6.00008 -176.127 1.22558 75.0452 11.2841 1.42109e-14 -1e-06 9.73509 1.10037 -13.9766 33.0001 1.6e-05 -1e-06 -44.9539 2.01967 21.1413 25.1998 0.000123 0.000432 12.4886 -14.3392 9.14821 
-24.0432 91.0152 3.38021 -11.3098 85.4162 103.473 0.103456 1.85784 10.5485 -1.82463 9.76588 -173.719 43.5 -4.2e-05 1e-05 -32.7161 -9.05779 -3.44139 42.3722 1.9e-05 4.44089e-16 75.8347 -0.295571 6.21809 17.3 2.22045e-16 3e-06 21.4546 -1e-06 0.003093 0.103456 1.85782 -10.5485 9.5464 -0.611249 177.498 43.5 -2.7e-05 4e-06 -13.4815 12.6039 1.91389 42.3723 8.88178e-16 1e-05 85.783 12.7107 -10.9456 17.3 -6e-06 1.7e-05 21.4546 -1.9e-05 -0.003116 6.90197 -2.60373 -3e-06 7.83298 0.00846653 0.0250148 12.5881 1e-05 8e-06 5.65098 0.0924304 0.0735161 12.3432 -1.8e-05 -5e-06 5.33055 0.179606 0.0799574 25.8329 2.3e-05 7e-06 2.80584 -1.78479 -4.1182 11.7666 -8e-06 -6e-06 -15.0767 -8.91936 11.1819 19.7459 -1.48035 6.0001 176.762 -13.1811 -94.1933 11.2841 1.8e-05 -2e-05 10.5767 -23.1334 46.9341 33 -1.3e-05 1.9e-05 -50.0291 8.71481 -10.0526 25.2 3.2e-05 1.1e-05 -11.1916 30.5405 2.93562 19.7461 -1.48036 -6.00008 -175.369 1.14588 73.6604 11.2841 7.10543e-15 -1e-06 8.23466 1.18081 -17.2276 33.0001 1.6e-05 -1e-06 -48.1408 1.29173 20.5957 25.1998 0.000123 0.000432 10.9758 -14.5997 8.97956 
-24.6068 90.7879 3.80601 -17.7819 85.3147 109.718 0.103456 1.85784 10.5485 -5.24536 8.64481 -173.021 43.5 -4.2e-05 1e-05 -38.9136 -8.45688 -3.26947 42.3722 1.9e-05 -1.33227e-15 74.4675 -0.639664 8.21598 17.3 -2.22045e-16 3e-06 21.4546 -1e-06 0.003093 0.103456 1.85782 -10.5485 9.9829 -0.989414 178.151 43.5 -2.7e-05 4e-06 -13.3588 12.7988 1.90704 42.3723 -8.88178e-16 1e-05 86.3083 12.6102 -10.7593 17.3 -6e-06 1.7e-05 21.4546 -1.9e-05 -0.003116 6.90197 -2.60373 -3e-06 8.01303 -0.0169046 0.0612984 12.5881 1e-05 8e-06 6.01138 0.0516476 0.150143 12.3432 -1.8e-05 -5e-06 5.69123 0.14911 0.159436 25.8329 2.3e-05 7e-06 2.84725 -1.97335 -4.19177 11.7666 -8e-06 -6e-06 -14.6597 -9.09341 11.1548 19.7459 -1.48035 6.0001 177.786 -13.1165 -92.5735 11.2841 1.8e-05 -2e-05 12.3843 -22.6196 51.1316 33 -1.3e-05 1.9e-05 -53.7997 7.63268 -9.09882 25.2 3.2e-05 1.1e-05 -12.8882 30.1891 2.98274 19.7461 -1.48036 -6.00008 -174.523 0.947982 72.285 11.2841 0 -1e-06 6.55437 1.315 -20.6527 33.0001 1.6e-05 -1e-06 -51.6317 0.893352 19.9898 25.1998 0.000123 0.000432 9.48316 -14.7098 8.64027 
-25.114 90.5935 4.28289 -24.4813 85.0476 116.204 0.103456 1.85784 10.5485 -9.41882 7.76636 -172.387 43.5 -4.2e-05 1e-05 -46.2772 -7.57707 -2.80678 42.3722 1.9e-05 2.66454e-15 71.8172 -1.21555 10.2378 17.3 -1.9984e-15 3e-06 21.4546 -1e-06 0.003093 0.103456 1.85782 -10.5485 10.576 -1.388 178.736 43.5 -2.7e-05 4e-06 -12.9212 12.9855 1.9871 42.3723 0 1e-05 86.6361 12.5383 -10.5886 17.3 -6e-06 1.7e-05 21.4546 -1.9e-05 -0.003116 6.90197 -2.60373 -3e-06 8.20838 -0.0384123 0.100123 12.5881 1e-05 8e-06 6.40237 0.0196184 0.231346 12.3432 -1.8e-05 -5e-06 6.08232 0.128081 0.242959 25.8329 2.3e-05 7e-06 2.99095 -2.1439 -4.21521 11.7666 -8e-06 -6e-06 -14.2465 -9.33779 11.2709 19.7459 -1.48035 6.0001 178.996 -13.0773 -90.7898 11.2841 1.8e-05 -2e-05 14.2145 -21.9863 55.3912 33 -1.3e-05 1.9e-05 -58.0238 5.91511 -8.12586 25.2 3.2e-05 1.1e-05 -14.6108 29.4251 3.25503 19.7461 -1.48036 -6.00008 -173.619 0.691552 70.8926 11.2841 7.10543e-15 -1e-06 4.36971 1.11484 -24.0148 33.0001 1.6e-05 -1e-06 -55.0871 0.592262 19.4414 25.1998 0.000123 0.000432 8.09687 -15.1794 8.92335 
